<svg width="100" height="24" viewBox="0 0 100 24" fill="none" xmlns="http://www.w3.org/2000/svg">
<path fill-rule="evenodd" clip-rule="evenodd" d="M4.85525 0.00268555V20.1258H12.1358V23.5975H0.978363V0.00268555H4.85525ZM25.8201 10.0136V7.89005H29.4944V23.5984H25.821V21.474C25.3259 22.2607 24.6247 22.8789 23.714 23.3277C22.8042 23.7774 21.8882 24.0018 20.967 24.0018C19.7751 24.0018 18.6854 23.7835 17.697 23.3452C16.7336 22.9252 15.8671 22.3111 15.1517 21.5412C14.4428 20.7755 13.8831 19.8841 13.5014 18.913C13.1036 17.9039 12.9029 16.828 12.9103 15.7434C12.9103 14.6432 13.1067 13.5919 13.5005 12.5912C13.8798 11.6134 14.44 10.7158 15.1517 9.94549C15.8674 9.17612 16.7338 8.56235 17.697 8.14239C18.6854 7.70406 19.7751 7.48577 20.967 7.48577C21.8882 7.48577 22.8042 7.71017 23.714 8.15986C24.6239 8.60954 25.325 9.22687 25.8201 10.0136ZM25.4831 17.6652C25.7093 17.0502 25.8238 16.3996 25.821 15.7442C25.821 15.0693 25.7075 14.4292 25.4831 13.8232C25.2725 13.2398 24.9524 12.7019 24.54 12.2384C24.1284 11.7839 23.6295 11.4169 23.0731 11.1592C22.5003 10.8903 21.8655 10.7549 21.1696 10.7549C20.4719 10.7549 19.8424 10.8903 19.2809 11.1592C18.7314 11.42 18.2388 11.7868 17.8315 12.2384C17.4205 12.6995 17.1058 13.238 16.9059 13.8224C16.6899 14.4397 16.5812 15.0894 16.5846 15.7434C16.5846 16.4174 16.6911 17.0583 16.905 17.6643C17.1181 18.2721 17.4272 18.7995 17.8323 19.2491C18.2395 19.701 18.7322 20.0678 19.2818 20.3284C19.8424 20.5982 20.4719 20.7327 21.1687 20.7327C21.8655 20.7327 22.5003 20.5982 23.0731 20.3284C23.6297 20.0709 24.1286 19.7039 24.54 19.2491C24.9524 18.786 25.2725 18.2484 25.4831 17.6652ZM32.3933 23.5975V7.89005H42.3711V11.5059H36.0668V23.5993H32.3933V23.5975ZM55.6852 10.0136V7.89005H59.3595V23.5984H55.6852V21.474C55.191 22.2607 54.489 22.8789 53.5782 23.3277C52.6684 23.7774 51.7533 24.0018 50.8312 24.0018C49.6402 24.0018 48.5505 23.7835 47.5621 23.3452C46.5987 22.9252 45.7322 22.3111 45.0168 21.5412C44.3076 20.7756 43.7476 19.8842 43.3656 18.913C42.9681 17.9039 42.7677 16.8279 42.7754 15.7434C42.7754 14.6432 42.9718 13.5919 43.3656 12.5912C43.7446 11.6135 44.3045 10.7159 45.0159 9.94549C45.7318 9.17602 46.5986 8.56224 47.5621 8.14239C48.5505 7.70406 49.6402 7.48577 50.8312 7.48577C51.7524 7.48577 52.6684 7.71017 53.5782 8.15986C54.489 8.60954 55.191 9.22687 55.6852 10.0136ZM55.3482 17.6652C55.5741 17.0501 55.6883 16.3995 55.6852 15.7442C55.6852 15.0693 55.5717 14.4292 55.3482 13.8232C55.1376 13.2398 54.8175 12.7019 54.4051 12.2384C53.9935 11.7839 53.4946 11.4169 52.9382 11.1592C52.3654 10.8903 51.7297 10.7549 51.0338 10.7549C50.337 10.7549 49.7075 10.8903 49.146 11.1592C48.5965 11.42 48.1039 11.7868 47.6965 12.2384C47.2852 12.6994 46.9703 13.2379 46.7701 13.8224C46.5544 14.4397 46.446 15.0894 46.4497 15.7434C46.4497 16.4174 46.5553 17.0583 46.7701 17.6643C46.9832 18.2721 47.2923 18.7995 47.6965 19.2491C48.1038 19.701 48.5964 20.0678 49.146 20.3284C49.7075 20.5982 50.337 20.7327 51.0338 20.7327C51.7297 20.7327 52.3654 20.5982 52.9382 20.3284C53.4948 20.0709 53.9937 19.7039 54.4051 19.2491C54.8175 18.786 55.1376 18.2484 55.3482 17.6652ZM74.089 7.89005H77.8105L71.7812 23.5984H67.1622L61.132 7.89005H64.8535L69.4717 19.9189L74.089 7.89005ZM85.8245 7.48577C90.8269 7.48577 94.2383 11.9197 93.5974 17.109H81.4088C81.4088 18.4642 82.7771 21.0837 86.0262 21.0837C88.8203 21.0837 90.6933 18.6257 90.6941 18.6239L93.1766 20.5449C90.957 22.9138 89.1399 24.0027 86.2942 24.0027C81.2098 24.0027 77.7634 20.7859 77.7634 15.7442C77.7634 11.1837 81.3259 7.48577 85.8245 7.48577ZM81.4184 14.3786H90.2235C90.1964 14.0765 89.7188 10.4039 85.7948 10.4039C81.8699 10.4039 81.4464 14.0765 81.4184 14.3786ZM95.9899 23.5975V0.00268555H99.6642V23.5975H95.9899Z" fill="#9CA3AF"/>
</svg>
