<svg width="100" height="22" viewBox="0 0 100 22" fill="none" xmlns="http://www.w3.org/2000/svg">
<path d="M66.5402 0.95631H83.9143V4.16313H77.0222V21.0338H73.5758V4.16313H66.5402V0.95631Z" fill="#9CA3AF"/>
<path d="M37.9662 0.95631V4.16313H24.0397V9.32191H35.2394V12.5287H24.0397V17.827H37.9662V21.0338H20.5936V4.16313H20.5921V0.95631H37.9662Z" fill="#9CA3AF"/>
<path d="M46.6417 0.964683H42.1318L58.2852 21.0421H62.8082L54.7305 11.0103L62.7953 0.980001L58.2852 0.986971L52.4726 8.20609L46.6417 0.964683Z" fill="#9CA3AF"/>
<path d="M51.2695 15.3061L49.011 12.498L42.1189 21.0575H46.6417L51.2695 15.3061Z" fill="#9CA3AF"/>
<path fill-rule="evenodd" clip-rule="evenodd" d="M20.7143 21.0338L4.53916 0.947937H0.231537V21.0254H3.67764V5.23948L16.3851 21.0338H20.7143Z" fill="#9CA3AF"/>
<path d="M84.689 20.9111C84.4366 20.9111 84.2219 20.8237 84.0422 20.6489C83.8624 20.474 83.7736 20.2623 83.7758 20.0115C83.7736 19.7676 83.8624 19.5582 84.0422 19.3834C84.2219 19.2085 84.4366 19.1211 84.689 19.1211C84.9318 19.1211 85.1442 19.2085 85.3239 19.3834C85.5062 19.5582 85.5971 19.7676 85.5996 20.0115C85.5971 20.1772 85.5551 20.329 85.471 20.4647C85.3847 20.6028 85.2751 20.711 85.1371 20.7892C85.0017 20.8697 84.8523 20.9111 84.689 20.9111Z" fill="#9CA3AF"/>
<path d="M90.5708 12.4531H92.0979V18.3364C92.0956 18.8771 91.9786 19.3396 91.75 19.7285C91.5189 20.1173 91.1989 20.4141 90.788 20.6235C90.3794 20.8306 89.9007 20.9364 89.3566 20.9364C88.8591 20.9364 88.4133 20.8467 88.0164 20.6718C87.6194 20.497 87.3042 20.2347 87.0731 19.8895C86.8394 19.5444 86.725 19.1141 86.725 18.5987H88.2546C88.2569 18.8242 88.3083 19.0198 88.4062 19.1831C88.5042 19.3465 88.6396 19.4707 88.8126 19.5582C88.9875 19.6456 89.1885 19.6894 89.4148 19.6894C89.6601 19.6894 89.8703 19.6387 90.0407 19.5352C90.211 19.4339 90.3419 19.2821 90.4331 19.0796C90.5217 18.8795 90.5685 18.6309 90.5708 18.3364V12.4531Z" fill="#9CA3AF"/>
<path d="M98.3812 14.754C98.3439 14.3973 98.1804 14.1189 97.8956 13.9211C97.6083 13.7209 97.2371 13.6219 96.7817 13.6219C96.4619 13.6219 96.1865 13.6703 95.9576 13.7646C95.7288 13.8612 95.5513 13.9901 95.4298 14.1534C95.3085 14.3168 95.2478 14.5032 95.2429 14.7126C95.2429 14.8874 95.285 15.0393 95.3667 15.1658C95.4485 15.2947 95.5581 15.4028 95.7007 15.4903C95.8407 15.58 95.9971 15.6536 96.1677 15.7134C96.3404 15.7733 96.5133 15.8239 96.686 15.8653L97.4822 16.0609C97.8022 16.1345 98.1128 16.2335 98.4093 16.36C98.7057 16.4842 98.9743 16.643 99.21 16.834C99.446 17.025 99.6328 17.255 99.7705 17.5242C99.9083 17.7934 99.9784 18.1086 99.9784 18.4722C99.9784 18.9623 99.8523 19.3925 99.5976 19.7653C99.3432 20.1357 98.9766 20.4256 98.4956 20.635C98.0169 20.8421 97.4379 20.9479 96.7561 20.9479C96.0976 20.9479 95.5232 20.8467 95.0399 20.6442C94.5543 20.4441 94.1759 20.1495 93.9027 19.763C93.6295 19.3764 93.4824 18.9047 93.4614 18.3502H94.9746C94.9956 18.6401 95.089 18.8818 95.2477 19.0773C95.4088 19.2706 95.6189 19.4133 95.8759 19.5099C96.1351 19.6042 96.4245 19.6525 96.7445 19.6525C97.0784 19.6525 97.3726 19.6019 97.627 19.503C97.8791 19.404 98.0776 19.266 98.2202 19.0865C98.365 18.9094 98.4374 18.7 98.4396 18.4607C98.4374 18.2421 98.3718 18.0603 98.2457 17.9177C98.1174 17.775 97.9399 17.6554 97.7133 17.5587C97.4847 17.4621 97.2184 17.3747 96.9148 17.2987L95.9482 17.0548C95.25 16.8777 94.6966 16.6085 94.2926 16.2473C93.8865 15.886 93.6855 15.4074 93.6855 14.8069C93.6855 14.3145 93.8209 13.882 94.0943 13.5115C94.365 13.1411 94.7364 12.8535 95.2057 12.6487C95.6774 12.4416 96.2098 12.3403 96.8027 12.3403C97.4052 12.3403 97.9328 12.4416 98.3883 12.6487C98.8434 12.8535 99.2009 13.1388 99.4599 13.5023C99.7191 13.8658 99.8546 14.2823 99.8617 14.754H98.3812Z" fill="#9CA3AF"/>
</svg>
