<svg width="98" height="36" viewBox="0 0 98 36" fill="none" xmlns="http://www.w3.org/2000/svg">
<path d="M20 21.8122C22.1039 21.8122 23.8095 20.1066 23.8095 18.0027C23.8095 15.8988 22.1039 14.1932 20 14.1932C17.8961 14.1932 16.1905 15.8988 16.1905 18.0027C16.1905 20.1066 17.8961 21.8122 20 21.8122Z" fill="#9CA3AF"/>
<path fill-rule="evenodd" clip-rule="evenodd" d="M6.92212 12.8103C3.5348 14.3346 1.90476 16.244 1.90476 18.0027C1.90476 19.7614 3.5348 21.6708 6.92212 23.1951C10.22 24.6792 14.8429 25.6217 20 25.6217C25.1571 25.6217 29.7799 24.6792 33.0779 23.1951C36.4652 21.6708 38.0952 19.7614 38.0952 18.0027C38.0952 16.244 36.4652 14.3346 33.0779 12.8103C29.7799 11.3262 25.1571 10.3836 20 10.3836C14.8429 10.3836 10.22 11.3262 6.92212 12.8103ZM6.14047 11.0733C9.73643 9.4551 14.6374 8.47888 20 8.47888C25.3626 8.47888 30.2636 9.4551 33.8595 11.0733C37.3661 12.6512 40 15.0275 40 18.0027C40 20.9778 37.3661 23.3542 33.8595 24.9321C30.2636 26.5503 25.3626 27.5265 20 27.5265C14.6374 27.5265 9.73643 26.5503 6.14047 24.9321C2.63392 23.3542 0 20.9778 0 18.0027C0 15.0275 2.63392 12.6512 6.14047 11.0733Z" fill="#9CA3AF"/>
<path fill-rule="evenodd" clip-rule="evenodd" d="M17.9578 4.0807C14.9441 1.90934 12.4755 1.45239 10.9524 2.33175C9.42928 3.21111 8.59071 5.57747 8.96429 9.27312C9.32801 12.8712 10.8232 17.346 13.4017 21.8122C15.9802 26.2784 19.108 29.8106 22.0422 31.9247C25.0559 34.096 27.5245 34.553 29.0476 33.6736C30.5707 32.7943 31.4093 30.4279 31.0357 26.7322C30.672 23.1341 29.1768 18.6593 26.5983 14.1932C24.0197 9.727 20.892 6.19476 17.9578 4.0807ZM19.0713 2.53528C22.2706 4.84038 25.5665 8.5966 28.2479 13.2408C30.9292 17.885 32.5342 22.6174 32.9308 26.5407C33.3175 30.3664 32.5765 33.8356 30 35.3232C27.4234 36.8108 24.0485 35.7179 20.9287 33.4701C17.7293 31.165 14.4335 27.4088 11.7521 22.7646C9.07082 18.1204 7.46578 13.388 7.06919 9.46469C6.68245 5.63895 7.42345 2.16975 10 0.682179C12.5765 -0.805392 15.9515 0.287488 19.0713 2.53528Z" fill="#9CA3AF"/>
<path fill-rule="evenodd" clip-rule="evenodd" d="M31.0357 9.27312C31.4093 5.57747 30.5707 3.21111 29.0476 2.33175C27.5245 1.45239 25.0559 1.90934 22.0422 4.0807C19.108 6.19476 15.9802 9.727 13.4017 14.1932C10.8232 18.6593 9.32802 23.1341 8.9643 26.7322C8.59071 30.4279 9.42928 32.7943 10.9524 33.6736C12.4755 34.553 14.9441 34.096 17.9578 31.9247C20.892 29.8106 24.0197 26.2784 26.5983 21.8122C29.1768 17.3461 30.672 12.8712 31.0357 9.27312ZM32.9308 9.46469C32.5342 13.388 30.9292 18.1204 28.2479 22.7646C25.5665 27.4088 22.2706 31.165 19.0713 33.4701C15.9515 35.7179 12.5765 36.8108 10 35.3232C7.42345 33.8356 6.68246 30.3664 7.06919 26.5407C7.46578 22.6174 9.07082 17.885 11.7521 13.2408C14.4335 8.5966 17.7294 4.84038 20.9287 2.53528C24.0485 0.287488 27.4234 -0.805392 30 0.682179C32.5765 2.16975 33.3175 5.63895 32.9308 9.46469Z" fill="#9CA3AF"/>
<path d="M49.2912 25.0027V11.9118H54.2003C55.206 11.9118 56.0497 12.0865 56.7315 12.4359C57.4176 12.7854 57.9354 13.2754 58.2848 13.9061C58.6385 14.5325 58.8153 15.2633 58.8153 16.0986C58.8153 16.9381 58.6364 17.6668 58.2784 18.2846C57.9247 18.8983 57.4027 19.3734 56.7123 19.7101C56.022 20.0425 55.174 20.2087 54.1683 20.2087H50.6719V18.2399H53.8487C54.4368 18.2399 54.9183 18.1589 55.2933 17.997C55.6683 17.8308 55.9453 17.59 56.1243 17.2747C56.3075 16.9551 56.3991 16.5631 56.3991 16.0986C56.3991 15.6341 56.3075 15.2378 56.1243 14.9096C55.941 14.5773 55.6619 14.3258 55.2869 14.1554C54.9119 13.9807 54.4283 13.8933 53.8359 13.8933H51.6626V25.0027H49.2912ZM56.054 19.0709L59.2947 25.0027H56.6484L53.4652 19.0709H56.054Z" fill="#9CA3AF"/>
<path d="M65.1019 25.1945C64.1175 25.1945 63.2674 24.9899 62.5515 24.5808C61.8398 24.1675 61.2923 23.5837 60.9087 22.8294C60.5252 22.0709 60.3334 21.1781 60.3334 20.1511C60.3334 19.1412 60.5252 18.2548 60.9087 17.492C61.2965 16.725 61.8377 16.1284 62.5323 15.7023C63.2269 15.2719 64.043 15.0567 64.9805 15.0567C65.5856 15.0567 66.1566 15.1547 66.6935 15.3507C67.2347 15.5425 67.712 15.8408 68.1254 16.2456C68.543 16.6504 68.8711 17.166 69.1097 17.7925C69.3484 18.4146 69.4677 19.1561 69.4677 20.0169V20.7264H61.4201V19.1668H67.2496C67.2454 18.7236 67.1495 18.3294 66.962 17.9842C66.7745 17.6348 66.5124 17.3599 66.1758 17.1596C65.8434 16.9594 65.4556 16.8592 65.0124 16.8592C64.5394 16.8592 64.1239 16.9743 63.766 17.2044C63.408 17.4302 63.1289 17.7285 62.9286 18.0993C62.7326 18.4658 62.6325 18.8685 62.6282 19.3074V20.6689C62.6282 21.2399 62.7326 21.73 62.9414 22.1391C63.1502 22.5439 63.4421 22.855 63.8171 23.0723C64.1921 23.2854 64.631 23.3919 65.1339 23.3919C65.4705 23.3919 65.7752 23.345 66.0479 23.2513C66.3207 23.1533 66.5572 23.0105 66.7574 22.823C66.9577 22.6355 67.109 22.4033 67.2113 22.1263L69.3718 22.3692C69.2354 22.9402 68.9755 23.4388 68.592 23.8649C68.2127 24.2868 67.7269 24.6149 67.1346 24.8493C66.5423 25.0794 65.8647 25.1945 65.1019 25.1945Z" fill="#9CA3AF"/>
<path d="M74.2505 25.2008C73.6284 25.2008 73.068 25.09 72.5694 24.8685C72.0751 24.6426 71.6831 24.3102 71.3933 23.8713C71.1078 23.4324 70.965 22.8912 70.965 22.2477C70.965 21.6937 71.0673 21.2356 71.2718 20.8734C71.4764 20.5112 71.7555 20.2214 72.1092 20.0041C72.4629 19.7868 72.8613 19.6227 73.3045 19.5119C73.7519 19.3969 74.2143 19.3138 74.6916 19.2626C75.2669 19.203 75.7335 19.1497 76.0914 19.1028C76.4494 19.0517 76.7093 18.975 76.8713 18.8727C77.0375 18.7662 77.1206 18.6021 77.1206 18.3805V18.3422C77.1206 17.8606 76.9778 17.4878 76.6923 17.2236C76.4068 16.9594 75.9955 16.8273 75.4586 16.8273C74.8919 16.8273 74.4423 16.9508 74.1099 17.198C73.7818 17.4452 73.5602 17.7371 73.4451 18.0737L71.2846 17.7669C71.4551 17.1703 71.7363 16.6717 72.1284 16.2712C72.5204 15.8663 72.9998 15.5638 73.5666 15.3635C74.1333 15.1589 74.7598 15.0567 75.4458 15.0567C75.9189 15.0567 76.3897 15.1121 76.8585 15.2229C77.3272 15.3337 77.7555 15.5169 78.1433 15.7726C78.5311 16.024 78.8421 16.367 79.0765 16.8017C79.3152 17.2364 79.4345 17.7797 79.4345 18.4317V25.0027H77.21V23.654H77.1333C76.9927 23.9267 76.7946 24.1824 76.5389 24.421C76.2875 24.6554 75.97 24.845 75.5865 24.9899C75.2072 25.1305 74.7619 25.2008 74.2505 25.2008ZM74.8514 23.5006C75.3159 23.5006 75.7186 23.4089 76.0595 23.2257C76.4004 23.0382 76.6625 22.791 76.8457 22.4842C77.0332 22.1774 77.1269 21.8429 77.1269 21.4807V20.3237C77.0545 20.3834 76.9309 20.4388 76.7562 20.4899C76.5858 20.541 76.394 20.5858 76.1809 20.6241C75.9679 20.6625 75.7569 20.6966 75.5481 20.7264C75.3393 20.7562 75.1582 20.7818 75.0048 20.8031C74.6596 20.85 74.3507 20.9267 74.0779 21.0332C73.8052 21.1398 73.59 21.2889 73.4323 21.4807C73.2747 21.6682 73.1958 21.9111 73.1958 22.2094C73.1958 22.6355 73.3514 22.9572 73.6625 23.1746C73.9735 23.3919 74.3698 23.5006 74.8514 23.5006Z" fill="#9CA3AF"/>
<path d="M86.0438 25.1945C85.0637 25.1945 84.2221 24.9793 83.519 24.5489C82.8201 24.1185 82.2811 23.524 81.9018 22.7655C81.5268 22.0027 81.3393 21.1248 81.3393 20.132C81.3393 19.1348 81.5311 18.2548 81.9146 17.492C82.2981 16.725 82.8393 16.1284 83.5382 15.7023C84.2413 15.2719 85.0723 15.0567 86.0311 15.0567C86.8279 15.0567 87.5332 15.2037 88.1468 15.4977C88.7647 15.7875 89.2569 16.1987 89.6234 16.7314C89.9899 17.2598 90.1987 17.8777 90.2498 18.5851H88.0382C87.9487 18.1121 87.7356 17.7179 87.399 17.4025C87.0666 17.0829 86.6213 16.9231 86.063 16.9231C85.59 16.9231 85.1745 17.051 84.8166 17.3067C84.4586 17.5581 84.1795 17.9203 83.9792 18.3933C83.7832 18.8663 83.6852 19.4331 83.6852 20.0936C83.6852 20.7626 83.7832 21.3379 83.9792 21.8195C84.1752 22.2967 84.4501 22.6653 84.8038 22.9253C85.1617 23.181 85.5815 23.3088 86.063 23.3088C86.4039 23.3088 86.7086 23.2449 86.9771 23.117C87.2498 22.9849 87.4778 22.7953 87.661 22.5481C87.8443 22.301 87.97 22.0006 88.0382 21.6469H90.2498C90.1944 22.3415 89.9899 22.9572 89.6362 23.4942C89.2825 24.0268 88.8009 24.4445 88.1916 24.747C87.5822 25.0453 86.8663 25.1945 86.0438 25.1945Z" fill="#9CA3AF"/>
<path d="M97.0526 15.1845V16.9743H91.4084V15.1845H97.0526ZM92.8018 12.8322H95.1158V22.0496C95.1158 22.3606 95.1626 22.5993 95.2564 22.7655C95.3544 22.9274 95.4822 23.0382 95.6399 23.0979C95.7976 23.1575 95.9723 23.1873 96.1641 23.1873C96.3089 23.1873 96.441 23.1767 96.5604 23.1554C96.6839 23.1341 96.7777 23.1149 96.8416 23.0979L97.2315 24.9068C97.1079 24.9494 96.9311 24.9963 96.701 25.0474C96.4751 25.0986 96.1981 25.1284 95.87 25.1369C95.2905 25.154 94.7685 25.0666 94.304 24.8748C93.8395 24.6788 93.4709 24.3763 93.1981 23.9672C92.9297 23.5581 92.7976 23.0467 92.8018 22.4331V12.8322Z" fill="#9CA3AF"/>
</svg>
