<svg width="176" height="22" viewBox="0 0 176 22" fill="none" xmlns="http://www.w3.org/2000/svg">
<path fill-rule="evenodd" clip-rule="evenodd" d="M18.7731 0.20282C13.9438 0.20282 10.9262 2.60295 9.71834 7.40321C11.5294 5.00308 13.6421 4.10321 16.0565 4.70289C17.434 5.04495 18.419 6.0385 19.5083 7.1385C21.284 8.92972 23.3392 11.0027 27.8272 11.0027C32.6558 11.0027 35.6741 8.60256 36.8812 3.80301C35.0709 6.20314 32.9581 7.10301 30.5438 6.50263C29.1656 6.16056 28.1806 5.16701 27.0912 4.06772C25.3156 2.27508 23.2611 0.20282 18.7731 0.20282ZM9.71834 11.0027C4.8897 11.0027 1.87144 13.4028 0.664276 18.2031C2.47537 15.803 4.58808 14.9031 7.0017 15.5028C8.37989 15.8448 9.36492 16.8384 10.4543 17.9384C12.2299 19.7296 14.2844 21.8026 18.7731 21.8026C23.6018 21.8026 26.62 19.4031 27.8272 14.6029C26.0161 17.003 23.9034 17.9029 21.489 17.3032C20.1116 16.9604 19.1265 15.9669 18.0372 14.8676C16.2616 13.0764 14.2063 11.0027 9.71834 11.0027Z" fill="#9CA3AF"/>
<path fill-rule="evenodd" clip-rule="evenodd" d="M54.9872 9.30443H51.827V15.3842C51.827 17.0059 52.8972 16.9803 54.9872 16.8788V19.3364C50.7561 19.8431 49.0742 18.6779 49.0742 15.3842V9.30443H46.7294V6.6694H49.0742V3.26721L51.827 2.45605V6.6694H54.9872V9.30443ZM67.0333 6.6694H69.7854V19.3364H67.0333V17.5126C66.0646 18.8546 64.5608 19.6657 62.573 19.6657C59.1069 19.6657 56.227 16.7525 56.227 13.0026C56.227 9.2285 59.1069 6.34011 62.573 6.34011C64.5608 6.34011 66.0646 7.15056 67.0333 8.46843V6.6694ZM63.0066 17.0562C65.3003 17.0562 67.0333 15.3587 67.0333 13.0026C67.0333 10.6464 65.3003 8.94959 63.0066 8.94959C60.7129 8.94959 58.9799 10.6471 58.9799 13.0026C58.9799 15.3587 60.7129 17.0562 63.0066 17.0562ZM74.3728 4.76959C73.4048 4.76959 72.6149 3.95914 72.6149 3.02166C72.6172 2.55705 72.8034 2.11226 73.1329 1.78466C73.4623 1.45706 73.9082 1.27334 74.3728 1.27372C74.8375 1.27315 75.2835 1.45679 75.6132 1.78441C75.9428 2.11203 76.1291 2.55693 76.1314 3.02166C76.1314 3.95843 75.3415 4.76959 74.3728 4.76959ZM72.9967 19.3364V6.6694H75.7496V19.3364H72.9967ZM78.9353 19.3364V0.841529H81.6874V19.3357L78.9353 19.3364ZM99.5536 6.6694H102.459L98.4578 19.3364H95.7561L93.1054 10.799L90.4292 19.3364H87.7282L83.7263 6.6694H86.6318L89.1043 15.4091L91.7805 6.6694H94.4055L97.0555 15.4091L99.5536 6.6694ZM105.874 4.76959C104.905 4.76959 104.115 3.95914 104.115 3.02166C104.118 2.55693 104.304 2.11203 104.634 1.78441C104.963 1.45679 105.409 1.27315 105.874 1.27372C106.339 1.27315 106.785 1.45679 107.114 1.78441C107.444 2.11203 107.63 2.55693 107.633 3.02166C107.633 3.95843 106.843 4.76959 105.874 4.76959ZM104.498 19.3364V6.6694H107.25V19.3364H104.498ZM117.139 6.34011C119.993 6.34011 122.032 8.26547 122.032 11.5591V19.3357H119.28V11.8373C119.28 9.91192 118.158 8.89921 116.425 8.89921C114.616 8.89921 113.189 9.96301 113.189 12.5469V19.3364H110.436V6.6694H113.189V8.29101C114.03 6.97385 115.406 6.34011 117.139 6.34011ZM135.081 1.60301H137.834V19.3357H135.081V17.5119C134.113 18.8546 132.609 19.665 130.621 19.665C127.155 19.665 124.275 16.7518 124.275 13.0019C124.275 9.22779 127.155 6.3394 130.621 6.3394C132.609 6.3394 134.113 7.14985 135.081 8.46772V1.60301ZM131.054 17.0562C133.348 17.0562 135.081 15.3587 135.081 13.0026C135.081 10.6464 133.348 8.94959 131.054 8.94959C128.76 8.94959 127.027 10.6471 127.027 13.0026C127.027 15.3587 128.76 17.0562 131.054 17.0562ZM147.059 19.6657C143.211 19.6657 140.331 16.7525 140.331 13.0026C140.331 9.2285 143.211 6.34011 147.059 6.34011C149.557 6.34011 151.723 7.63172 152.742 9.60818L150.372 10.9764C149.811 9.78559 148.563 9.02553 147.034 9.02553C144.791 9.02553 143.084 10.7231 143.084 13.0026C143.084 15.2828 144.791 16.9803 147.034 16.9803C148.563 16.9803 149.811 16.1947 150.423 15.0294L152.794 16.3721C151.723 18.3734 149.557 19.6657 147.059 19.6657ZM157.33 10.1653C157.33 12.471 164.186 11.0772 164.186 15.7646C164.186 18.2982 161.968 19.6657 159.216 19.6657C156.668 19.6657 154.832 18.5253 154.017 16.7014L156.387 15.3339C156.795 16.4736 157.815 17.1577 159.216 17.1577C160.44 17.1577 161.382 16.7525 161.382 15.7384C161.382 13.4844 154.527 14.7512 154.527 10.2164C154.527 7.83469 156.591 6.34011 159.191 6.34011C161.281 6.34011 163.014 7.30314 163.906 8.97514L161.586 10.2668C161.127 9.27888 160.235 8.82256 159.191 8.82256C158.196 8.82256 157.33 9.25334 157.33 10.1653ZM169.079 10.1653C169.079 12.471 175.935 11.0772 175.935 15.7646C175.935 18.2982 173.718 19.6657 170.965 19.6657C168.416 19.6657 166.582 18.5253 165.766 16.7014L168.136 15.3339C168.544 16.4736 169.563 17.1577 170.965 17.1577C172.188 17.1577 173.131 16.7525 173.131 15.7384C173.131 13.4844 166.276 14.7512 166.276 10.2164C166.276 7.83469 168.34 6.34011 170.94 6.34011C173.029 6.34011 174.762 7.30314 175.654 8.97514L173.335 10.2668C172.877 9.27888 171.985 8.82256 170.94 8.82256C169.946 8.82256 169.079 9.25334 169.079 10.1653Z" fill="#9CA3AF"/>
</svg>
